<mxfile host="app.diagrams.net" modified="2023-11-22T14:08:14.956Z" agent="Mozilla/5.0 (Windows NT 10.0; Win64; x64) AppleWebKit/537.36 (KHTML, like Gecko) Chrome/119.0.0.0 Safari/537.36 Edg/119.0.0.0" etag="UXdxI6w887YjnL8taoZT" version="22.1.3" type="device">
  <diagram name="Page-1" id="XEvhsYsEfCxp7q9VuARI">
    <mxGraphModel dx="1489" dy="1019" grid="1" gridSize="10" guides="1" tooltips="1" connect="1" arrows="1" fold="1" page="1" pageScale="1" pageWidth="4681" pageHeight="3300" math="0" shadow="0">
      <root>
        <mxCell id="0" />
        <mxCell id="1" parent="0" />
        <mxCell id="Pdi8LD-Ike9-SVRzSMsG-46" value="" style="whiteSpace=wrap;html=1;" vertex="1" parent="1">
          <mxGeometry x="840" y="120" width="320" height="680" as="geometry" />
        </mxCell>
        <mxCell id="Pdi8LD-Ike9-SVRzSMsG-10" value="" style="rounded=0;whiteSpace=wrap;html=1;" vertex="1" parent="1">
          <mxGeometry x="200" y="120" width="600" height="680" as="geometry" />
        </mxCell>
        <mxCell id="Pdi8LD-Ike9-SVRzSMsG-12" value="Ingress Controller" style="sketch=0;html=1;dashed=0;whitespace=wrap;fillColor=#2875E2;strokeColor=#ffffff;points=[[0.005,0.63,0],[0.1,0.2,0],[0.9,0.2,0],[0.5,0,0],[0.995,0.63,0],[0.72,0.99,0],[0.5,1,0],[0.28,0.99,0]];verticalLabelPosition=bottom;align=center;verticalAlign=top;shape=mxgraph.kubernetes.icon;prIcon=ing" vertex="1" parent="1">
          <mxGeometry x="230" y="300" width="80" height="80" as="geometry" />
        </mxCell>
        <mxCell id="Pdi8LD-Ike9-SVRzSMsG-13" value="" style="image;sketch=0;aspect=fixed;html=1;points=[];align=center;fontSize=12;image=img/lib/mscae/Kubernetes.svg;" vertex="1" parent="1">
          <mxGeometry x="210" y="130" width="31.25" height="30" as="geometry" />
        </mxCell>
        <mxCell id="Pdi8LD-Ike9-SVRzSMsG-14" value="Kubernetes Clurster" style="text;html=1;strokeColor=none;fillColor=none;align=center;verticalAlign=middle;whiteSpace=wrap;rounded=0;" vertex="1" parent="1">
          <mxGeometry x="250" y="130" width="108.75" height="30" as="geometry" />
        </mxCell>
        <mxCell id="Pdi8LD-Ike9-SVRzSMsG-15" value="" style="shape=actor;whiteSpace=wrap;html=1;" vertex="1" parent="1">
          <mxGeometry x="60" y="310" width="60" height="80" as="geometry" />
        </mxCell>
        <mxCell id="Pdi8LD-Ike9-SVRzSMsG-16" style="edgeStyle=orthogonalEdgeStyle;rounded=0;orthogonalLoop=1;jettySize=auto;html=1;exitX=0.9;exitY=0.5;exitDx=0;exitDy=0;exitPerimeter=0;entryX=0.005;entryY=0.63;entryDx=0;entryDy=0;entryPerimeter=0;flowAnimation=1;" edge="1" parent="1" source="Pdi8LD-Ike9-SVRzSMsG-15" target="Pdi8LD-Ike9-SVRzSMsG-12">
          <mxGeometry relative="1" as="geometry" />
        </mxCell>
        <mxCell id="Pdi8LD-Ike9-SVRzSMsG-17" value="Gateway" style="sketch=0;html=1;dashed=0;whitespace=wrap;fillColor=#2875E2;strokeColor=#ffffff;points=[[0.005,0.63,0],[0.1,0.2,0],[0.9,0.2,0],[0.5,0,0],[0.995,0.63,0],[0.72,0.99,0],[0.5,1,0],[0.28,0.99,0]];verticalLabelPosition=bottom;align=center;verticalAlign=top;shape=mxgraph.kubernetes.icon;prIcon=ep" vertex="1" parent="1">
          <mxGeometry x="380" y="450" width="80" height="80" as="geometry" />
        </mxCell>
        <mxCell id="Pdi8LD-Ike9-SVRzSMsG-18" style="edgeStyle=orthogonalEdgeStyle;rounded=0;orthogonalLoop=1;jettySize=auto;html=1;exitX=0.995;exitY=0.63;exitDx=0;exitDy=0;exitPerimeter=0;entryX=0.005;entryY=0.63;entryDx=0;entryDy=0;entryPerimeter=0;flowAnimation=1;" edge="1" parent="1" source="Pdi8LD-Ike9-SVRzSMsG-12" target="Pdi8LD-Ike9-SVRzSMsG-17">
          <mxGeometry relative="1" as="geometry" />
        </mxCell>
        <mxCell id="Pdi8LD-Ike9-SVRzSMsG-20" style="edgeStyle=orthogonalEdgeStyle;rounded=0;orthogonalLoop=1;jettySize=auto;html=1;exitX=0.995;exitY=0.63;exitDx=0;exitDy=0;exitPerimeter=0;entryX=0.005;entryY=0.63;entryDx=0;entryDy=0;entryPerimeter=0;flowAnimation=1;" edge="1" parent="1" source="Pdi8LD-Ike9-SVRzSMsG-12" target="Pdi8LD-Ike9-SVRzSMsG-30">
          <mxGeometry relative="1" as="geometry">
            <mxPoint x="380.4000000000001" y="200.39999999999998" as="targetPoint" />
          </mxGeometry>
        </mxCell>
        <mxCell id="Pdi8LD-Ike9-SVRzSMsG-30" value="Website" style="sketch=0;html=1;dashed=0;whitespace=wrap;fillColor=#2875E2;strokeColor=#ffffff;points=[[0.005,0.63,0],[0.1,0.2,0],[0.9,0.2,0],[0.5,0,0],[0.995,0.63,0],[0.72,0.99,0],[0.5,1,0],[0.28,0.99,0]];verticalLabelPosition=bottom;align=center;verticalAlign=top;shape=mxgraph.kubernetes.icon;prIcon=master" vertex="1" parent="1">
          <mxGeometry x="380" y="150" width="80" height="80" as="geometry" />
        </mxCell>
        <mxCell id="Pdi8LD-Ike9-SVRzSMsG-31" value="Auth Service" style="sketch=0;html=1;dashed=0;whitespace=wrap;fillColor=#2875E2;strokeColor=#ffffff;points=[[0.005,0.63,0],[0.1,0.2,0],[0.9,0.2,0],[0.5,0,0],[0.995,0.63,0],[0.72,0.99,0],[0.5,1,0],[0.28,0.99,0]];verticalLabelPosition=bottom;align=center;verticalAlign=top;shape=mxgraph.kubernetes.icon;prIcon=master" vertex="1" parent="1">
          <mxGeometry x="520" y="240" width="80" height="80" as="geometry" />
        </mxCell>
        <mxCell id="Pdi8LD-Ike9-SVRzSMsG-32" value="Search Service" style="sketch=0;html=1;dashed=0;whitespace=wrap;fillColor=#2875E2;strokeColor=#ffffff;points=[[0.005,0.63,0],[0.1,0.2,0],[0.9,0.2,0],[0.5,0,0],[0.995,0.63,0],[0.72,0.99,0],[0.5,1,0],[0.28,0.99,0]];verticalLabelPosition=bottom;align=center;verticalAlign=top;shape=mxgraph.kubernetes.icon;prIcon=master" vertex="1" parent="1">
          <mxGeometry x="520" y="520" width="80" height="80" as="geometry" />
        </mxCell>
        <mxCell id="Pdi8LD-Ike9-SVRzSMsG-33" value="Law Service" style="sketch=0;html=1;dashed=0;whitespace=wrap;fillColor=#2875E2;strokeColor=#ffffff;points=[[0.005,0.63,0],[0.1,0.2,0],[0.9,0.2,0],[0.5,0,0],[0.995,0.63,0],[0.72,0.99,0],[0.5,1,0],[0.28,0.99,0]];verticalLabelPosition=bottom;align=center;verticalAlign=top;shape=mxgraph.kubernetes.icon;prIcon=master" vertex="1" parent="1">
          <mxGeometry x="520" y="380" width="80" height="80" as="geometry" />
        </mxCell>
        <mxCell id="Pdi8LD-Ike9-SVRzSMsG-34" value="Chat Service" style="sketch=0;html=1;dashed=0;whitespace=wrap;fillColor=#2875E2;strokeColor=#ffffff;points=[[0.005,0.63,0],[0.1,0.2,0],[0.9,0.2,0],[0.5,0,0],[0.995,0.63,0],[0.72,0.99,0],[0.5,1,0],[0.28,0.99,0]];verticalLabelPosition=bottom;align=center;verticalAlign=top;shape=mxgraph.kubernetes.icon;prIcon=master" vertex="1" parent="1">
          <mxGeometry x="520" y="660" width="80" height="80" as="geometry" />
        </mxCell>
        <mxCell id="Pdi8LD-Ike9-SVRzSMsG-35" style="rounded=0;orthogonalLoop=1;jettySize=auto;html=1;exitX=0.995;exitY=0.63;exitDx=0;exitDy=0;exitPerimeter=0;entryX=0.005;entryY=0.63;entryDx=0;entryDy=0;entryPerimeter=0;ignoreEdge=1;flowAnimation=1;" edge="1" parent="1" source="Pdi8LD-Ike9-SVRzSMsG-17" target="Pdi8LD-Ike9-SVRzSMsG-33">
          <mxGeometry relative="1" as="geometry" />
        </mxCell>
        <mxCell id="Pdi8LD-Ike9-SVRzSMsG-36" style="rounded=0;orthogonalLoop=1;jettySize=auto;html=1;exitX=0.995;exitY=0.63;exitDx=0;exitDy=0;exitPerimeter=0;entryX=0.005;entryY=0.63;entryDx=0;entryDy=0;entryPerimeter=0;ignoreEdge=1;flowAnimation=1;" edge="1" parent="1" source="Pdi8LD-Ike9-SVRzSMsG-17" target="Pdi8LD-Ike9-SVRzSMsG-32">
          <mxGeometry relative="1" as="geometry" />
        </mxCell>
        <mxCell id="Pdi8LD-Ike9-SVRzSMsG-37" style="rounded=0;orthogonalLoop=1;jettySize=auto;html=1;exitX=0.995;exitY=0.63;exitDx=0;exitDy=0;exitPerimeter=0;entryX=0.005;entryY=0.63;entryDx=0;entryDy=0;entryPerimeter=0;ignoreEdge=1;flowAnimation=1;" edge="1" parent="1" source="Pdi8LD-Ike9-SVRzSMsG-17" target="Pdi8LD-Ike9-SVRzSMsG-31">
          <mxGeometry relative="1" as="geometry" />
        </mxCell>
        <mxCell id="Pdi8LD-Ike9-SVRzSMsG-38" style="rounded=0;orthogonalLoop=1;jettySize=auto;html=1;exitX=0.995;exitY=0.63;exitDx=0;exitDy=0;exitPerimeter=0;entryX=0.005;entryY=0.63;entryDx=0;entryDy=0;entryPerimeter=0;ignoreEdge=1;flowAnimation=1;" edge="1" parent="1" source="Pdi8LD-Ike9-SVRzSMsG-17" target="Pdi8LD-Ike9-SVRzSMsG-34">
          <mxGeometry relative="1" as="geometry" />
        </mxCell>
        <mxCell id="Pdi8LD-Ike9-SVRzSMsG-54" style="rounded=0;orthogonalLoop=1;jettySize=auto;html=1;exitX=0.995;exitY=0.63;exitDx=0;exitDy=0;exitPerimeter=0;entryX=0;entryY=0.5;entryDx=0;entryDy=0;ignoreEdge=1;flowAnimation=1;" edge="1" parent="1" source="Pdi8LD-Ike9-SVRzSMsG-39" target="Pdi8LD-Ike9-SVRzSMsG-50">
          <mxGeometry relative="1" as="geometry" />
        </mxCell>
        <mxCell id="Pdi8LD-Ike9-SVRzSMsG-55" style="rounded=0;orthogonalLoop=1;jettySize=auto;html=1;exitX=0.995;exitY=0.63;exitDx=0;exitDy=0;exitPerimeter=0;entryX=0;entryY=0.5;entryDx=0;entryDy=0;ignoreEdge=1;flowAnimation=1;" edge="1" parent="1" source="Pdi8LD-Ike9-SVRzSMsG-39" target="Pdi8LD-Ike9-SVRzSMsG-52">
          <mxGeometry relative="1" as="geometry" />
        </mxCell>
        <mxCell id="Pdi8LD-Ike9-SVRzSMsG-39" value="Worker Node" style="sketch=0;html=1;dashed=0;whitespace=wrap;fillColor=#2875E2;strokeColor=#ffffff;points=[[0.005,0.63,0],[0.1,0.2,0],[0.9,0.2,0],[0.5,0,0],[0.995,0.63,0],[0.72,0.99,0],[0.5,1,0],[0.28,0.99,0]];verticalLabelPosition=bottom;align=center;verticalAlign=top;shape=mxgraph.kubernetes.icon;prIcon=node" vertex="1" parent="1">
          <mxGeometry x="680" y="310" width="80" height="80" as="geometry" />
        </mxCell>
        <mxCell id="Pdi8LD-Ike9-SVRzSMsG-56" style="rounded=0;orthogonalLoop=1;jettySize=auto;html=1;exitX=0.995;exitY=0.63;exitDx=0;exitDy=0;exitPerimeter=0;entryX=0;entryY=1;entryDx=0;entryDy=0;ignoreEdge=1;flowAnimation=1;" edge="1" parent="1" source="Pdi8LD-Ike9-SVRzSMsG-40" target="Pdi8LD-Ike9-SVRzSMsG-50">
          <mxGeometry relative="1" as="geometry" />
        </mxCell>
        <mxCell id="Pdi8LD-Ike9-SVRzSMsG-57" style="rounded=0;orthogonalLoop=1;jettySize=auto;html=1;exitX=0.995;exitY=0.63;exitDx=0;exitDy=0;exitPerimeter=0;entryX=0;entryY=1;entryDx=0;entryDy=0;ignoreEdge=1;flowAnimation=1;" edge="1" parent="1" source="Pdi8LD-Ike9-SVRzSMsG-40" target="Pdi8LD-Ike9-SVRzSMsG-52">
          <mxGeometry relative="1" as="geometry" />
        </mxCell>
        <mxCell id="Pdi8LD-Ike9-SVRzSMsG-40" value="Worker Node" style="sketch=0;html=1;dashed=0;whitespace=wrap;fillColor=#2875E2;strokeColor=#ffffff;points=[[0.005,0.63,0],[0.1,0.2,0],[0.9,0.2,0],[0.5,0,0],[0.995,0.63,0],[0.72,0.99,0],[0.5,1,0],[0.28,0.99,0]];verticalLabelPosition=bottom;align=center;verticalAlign=top;shape=mxgraph.kubernetes.icon;prIcon=node" vertex="1" parent="1">
          <mxGeometry x="680" y="590" width="80" height="80" as="geometry" />
        </mxCell>
        <mxCell id="Pdi8LD-Ike9-SVRzSMsG-51" style="rounded=0;orthogonalLoop=1;jettySize=auto;html=1;exitX=0.995;exitY=0.63;exitDx=0;exitDy=0;exitPerimeter=0;entryX=0;entryY=0;entryDx=0;entryDy=0;ignoreEdge=1;flowAnimation=1;" edge="1" parent="1" source="Pdi8LD-Ike9-SVRzSMsG-41" target="Pdi8LD-Ike9-SVRzSMsG-50">
          <mxGeometry relative="1" as="geometry" />
        </mxCell>
        <mxCell id="Pdi8LD-Ike9-SVRzSMsG-53" style="rounded=0;orthogonalLoop=1;jettySize=auto;html=1;exitX=0.995;exitY=0.63;exitDx=0;exitDy=0;exitPerimeter=0;entryX=0;entryY=0;entryDx=0;entryDy=0;ignoreEdge=1;flowAnimation=1;" edge="1" parent="1" source="Pdi8LD-Ike9-SVRzSMsG-41" target="Pdi8LD-Ike9-SVRzSMsG-52">
          <mxGeometry relative="1" as="geometry" />
        </mxCell>
        <mxCell id="Pdi8LD-Ike9-SVRzSMsG-41" value="Master Node" style="sketch=0;html=1;dashed=0;whitespace=wrap;fillColor=#2875E2;strokeColor=#ffffff;points=[[0.005,0.63,0],[0.1,0.2,0],[0.9,0.2,0],[0.5,0,0],[0.995,0.63,0],[0.72,0.99,0],[0.5,1,0],[0.28,0.99,0]];verticalLabelPosition=bottom;align=center;verticalAlign=top;shape=mxgraph.kubernetes.icon;prIcon=node" vertex="1" parent="1">
          <mxGeometry x="680" y="160" width="80" height="80" as="geometry" />
        </mxCell>
        <mxCell id="Pdi8LD-Ike9-SVRzSMsG-42" style="rounded=0;orthogonalLoop=1;jettySize=auto;html=1;exitX=0.995;exitY=0.63;exitDx=0;exitDy=0;exitPerimeter=0;entryX=0.005;entryY=0.63;entryDx=0;entryDy=0;entryPerimeter=0;edgeStyle=elbowEdgeStyle;ignoreEdge=1;flowAnimation=1;" edge="1" parent="1" source="Pdi8LD-Ike9-SVRzSMsG-31" target="Pdi8LD-Ike9-SVRzSMsG-39">
          <mxGeometry relative="1" as="geometry" />
        </mxCell>
        <mxCell id="Pdi8LD-Ike9-SVRzSMsG-43" style="rounded=0;orthogonalLoop=1;jettySize=auto;html=1;exitX=0.995;exitY=0.63;exitDx=0;exitDy=0;exitPerimeter=0;entryX=0.005;entryY=0.63;entryDx=0;entryDy=0;entryPerimeter=0;edgeStyle=orthogonalEdgeStyle;ignoreEdge=1;flowAnimation=1;" edge="1" parent="1" source="Pdi8LD-Ike9-SVRzSMsG-33" target="Pdi8LD-Ike9-SVRzSMsG-39">
          <mxGeometry relative="1" as="geometry" />
        </mxCell>
        <mxCell id="Pdi8LD-Ike9-SVRzSMsG-44" style="rounded=0;orthogonalLoop=1;jettySize=auto;html=1;exitX=0.995;exitY=0.63;exitDx=0;exitDy=0;exitPerimeter=0;entryX=0.005;entryY=0.63;entryDx=0;entryDy=0;entryPerimeter=0;edgeStyle=orthogonalEdgeStyle;ignoreEdge=1;flowAnimation=1;" edge="1" parent="1" source="Pdi8LD-Ike9-SVRzSMsG-32" target="Pdi8LD-Ike9-SVRzSMsG-40">
          <mxGeometry relative="1" as="geometry" />
        </mxCell>
        <mxCell id="Pdi8LD-Ike9-SVRzSMsG-45" style="rounded=0;orthogonalLoop=1;jettySize=auto;html=1;exitX=0.995;exitY=0.63;exitDx=0;exitDy=0;exitPerimeter=0;entryX=0.005;entryY=0.63;entryDx=0;entryDy=0;entryPerimeter=0;edgeStyle=orthogonalEdgeStyle;ignoreEdge=1;flowAnimation=1;" edge="1" parent="1" source="Pdi8LD-Ike9-SVRzSMsG-34" target="Pdi8LD-Ike9-SVRzSMsG-40">
          <mxGeometry relative="1" as="geometry" />
        </mxCell>
        <mxCell id="Pdi8LD-Ike9-SVRzSMsG-2" value="" style="shape=image;verticalLabelPosition=bottom;labelBackgroundColor=default;verticalAlign=top;aspect=fixed;imageAspect=0;image=https://upload.wikimedia.org/wikipedia/commons/thumb/e/e6/OpenStack%C2%AE_Logo_2016.svg/2560px-OpenStack%C2%AE_Logo_2016.svg.png;" vertex="1" parent="1">
          <mxGeometry x="850" y="130" width="62.18" height="30" as="geometry" />
        </mxCell>
        <mxCell id="Pdi8LD-Ike9-SVRzSMsG-60" style="edgeStyle=orthogonalEdgeStyle;rounded=0;orthogonalLoop=1;jettySize=auto;html=1;exitX=1;exitY=1;exitDx=0;exitDy=0;entryX=0;entryY=0;entryDx=0;entryDy=0;curved=1;ignoreEdge=1;flowAnimation=1;" edge="1" parent="1" source="Pdi8LD-Ike9-SVRzSMsG-48" target="Pdi8LD-Ike9-SVRzSMsG-59">
          <mxGeometry relative="1" as="geometry">
            <Array as="points">
              <mxPoint x="1070" y="250" />
            </Array>
          </mxGeometry>
        </mxCell>
        <mxCell id="Pdi8LD-Ike9-SVRzSMsG-48" value="Cider" style="shape=image;verticalLabelPosition=bottom;labelBackgroundColor=default;verticalAlign=top;aspect=fixed;imageAspect=0;image=https://object-storage-ca-ymq-1.vexxhost.net/swift/v1/6e4619c416ff4bd19e1c087f27a43eea/www-images-prod/project-mascots/Cinder/OpenStack_Project_Cinder_mascot.png;" vertex="1" parent="1">
          <mxGeometry x="890" y="170" width="80" height="80" as="geometry" />
        </mxCell>
        <mxCell id="Pdi8LD-Ike9-SVRzSMsG-49" style="edgeStyle=orthogonalEdgeStyle;rounded=0;orthogonalLoop=1;jettySize=auto;html=1;exitX=0.995;exitY=0.63;exitDx=0;exitDy=0;exitPerimeter=0;entryX=0;entryY=0.5;entryDx=0;entryDy=0;ignoreEdge=1;flowAnimation=1;" edge="1" parent="1" source="Pdi8LD-Ike9-SVRzSMsG-41" target="Pdi8LD-Ike9-SVRzSMsG-48">
          <mxGeometry relative="1" as="geometry" />
        </mxCell>
        <mxCell id="Pdi8LD-Ike9-SVRzSMsG-61" style="rounded=0;orthogonalLoop=1;jettySize=auto;html=1;exitX=1;exitY=1;exitDx=0;exitDy=0;entryX=0;entryY=0.5;entryDx=0;entryDy=0;ignoreEdge=1;flowAnimation=1;" edge="1" parent="1" source="Pdi8LD-Ike9-SVRzSMsG-50" target="Pdi8LD-Ike9-SVRzSMsG-59">
          <mxGeometry relative="1" as="geometry" />
        </mxCell>
        <mxCell id="Pdi8LD-Ike9-SVRzSMsG-50" value="Neutron" style="shape=image;verticalLabelPosition=bottom;labelBackgroundColor=default;verticalAlign=top;aspect=fixed;imageAspect=0;image=https://object-storage-ca-ymq-1.vexxhost.net/swift/v1/6e4619c416ff4bd19e1c087f27a43eea/www-images-prod/project-mascots/Neutron/OpenStack_Project_Neutron_mascot.jpg;" vertex="1" parent="1">
          <mxGeometry x="890" y="350" width="80" height="80" as="geometry" />
        </mxCell>
        <mxCell id="Pdi8LD-Ike9-SVRzSMsG-63" style="rounded=0;orthogonalLoop=1;jettySize=auto;html=1;exitX=1;exitY=0;exitDx=0;exitDy=0;entryX=0;entryY=0.75;entryDx=0;entryDy=0;ignoreEdge=1;flowAnimation=1;" edge="1" parent="1" source="Pdi8LD-Ike9-SVRzSMsG-52" target="Pdi8LD-Ike9-SVRzSMsG-59">
          <mxGeometry relative="1" as="geometry" />
        </mxCell>
        <mxCell id="Pdi8LD-Ike9-SVRzSMsG-52" value="Nova" style="shape=image;verticalLabelPosition=bottom;labelBackgroundColor=default;verticalAlign=top;aspect=fixed;imageAspect=0;image=https://object-storage-ca-ymq-1.vexxhost.net/swift/v1/6e4619c416ff4bd19e1c087f27a43eea/www-images-prod/project-mascots/Nova/OpenStack_Project_Nova_mascot.jpg;" vertex="1" parent="1">
          <mxGeometry x="890" y="530" width="80" height="80" as="geometry" />
        </mxCell>
        <mxCell id="Pdi8LD-Ike9-SVRzSMsG-62" style="edgeStyle=orthogonalEdgeStyle;rounded=0;orthogonalLoop=1;jettySize=auto;html=1;exitX=1;exitY=0;exitDx=0;exitDy=0;entryX=0;entryY=1;entryDx=0;entryDy=0;curved=1;ignoreEdge=1;flowAnimation=1;" edge="1" parent="1" source="Pdi8LD-Ike9-SVRzSMsG-58" target="Pdi8LD-Ike9-SVRzSMsG-59">
          <mxGeometry relative="1" as="geometry">
            <Array as="points">
              <mxPoint x="1070" y="680" />
            </Array>
          </mxGeometry>
        </mxCell>
        <mxCell id="Pdi8LD-Ike9-SVRzSMsG-58" value="Glance" style="shape=image;verticalLabelPosition=bottom;labelBackgroundColor=default;verticalAlign=top;aspect=fixed;imageAspect=0;image=https://object-storage-ca-ymq-1.vexxhost.net/swift/v1/6e4619c416ff4bd19e1c087f27a43eea/www-images-prod/project-mascots/Glance/OpenStack_Project_Glance_mascot.jpg;" vertex="1" parent="1">
          <mxGeometry x="890" y="680" width="80" height="80" as="geometry" />
        </mxCell>
        <mxCell id="Pdi8LD-Ike9-SVRzSMsG-59" value="Keystone" style="shape=image;verticalLabelPosition=bottom;labelBackgroundColor=default;verticalAlign=top;aspect=fixed;imageAspect=0;image=https://object-storage-ca-ymq-1.vexxhost.net/swift/v1/6e4619c416ff4bd19e1c087f27a43eea/www-images-prod/project-mascots/Keystone/OpenStack_Project_Keystone_mascot.jpg;" vertex="1" parent="1">
          <mxGeometry x="1070" y="420" width="80" height="80" as="geometry" />
        </mxCell>
        <mxCell id="Pdi8LD-Ike9-SVRzSMsG-64" value="User" style="text;html=1;strokeColor=none;fillColor=none;align=center;verticalAlign=middle;whiteSpace=wrap;rounded=0;" vertex="1" parent="1">
          <mxGeometry x="60" y="390" width="60" height="30" as="geometry" />
        </mxCell>
      </root>
    </mxGraphModel>
  </diagram>
</mxfile>
